<svg id="RS_Logo_Colour" data-name="RS Logo Colour" xmlns="http://www.w3.org/2000/svg" xmlns:xlink="http://www.w3.org/1999/xlink" width="200" height="18.155" viewBox="0 0 200 18.155">
  <defs>
    <clipPath id="clip-path">
      <path id="Path_10" data-name="Path 10" d="M41.385,27.267a1.575,1.575,0,0,0-1.513,1.3l-.059.408a1.117,1.117,0,0,0,1.141,1.3H43.36a1.575,1.575,0,0,0,1.514-1.3l.058-.408a1.117,1.117,0,0,0-1.14-1.3Zm6.052,0a1.575,1.575,0,0,0-1.513,1.3l-.059.408a1.117,1.117,0,0,0,1.141,1.3h2.406a1.573,1.573,0,0,0,1.513-1.3l.059-.408a1.117,1.117,0,0,0-1.141-1.3Zm6.051,0a1.575,1.575,0,0,0-1.512,1.3l-.059.408a1.117,1.117,0,0,0,1.141,1.3h2.405a1.574,1.574,0,0,0,1.514-1.3l.059-.408a1.117,1.117,0,0,0-1.141-1.3ZM35.866,23.538a1.575,1.575,0,0,0-1.513,1.305l-.059.408a1.118,1.118,0,0,0,1.14,1.305h2.407a1.578,1.578,0,0,0,1.514-1.305l.058-.408a1.118,1.118,0,0,0-1.141-1.305Zm12.1,0a1.576,1.576,0,0,0-1.514,1.305l-.058.408a1.118,1.118,0,0,0,1.141,1.305h2.406a1.576,1.576,0,0,0,1.513-1.305l.059-.408a1.118,1.118,0,0,0-1.141-1.305Zm6.052,0a1.576,1.576,0,0,0-1.514,1.305l-.058.408a1.118,1.118,0,0,0,1.141,1.305H56a1.576,1.576,0,0,0,1.514-1.305l.058-.408a1.117,1.117,0,0,0-1.14-1.305ZM24.3,19.81a1.574,1.574,0,0,0-1.512,1.3l-.059.408a1.117,1.117,0,0,0,1.14,1.305h2.406a1.576,1.576,0,0,0,1.514-1.305l.059-.408a1.117,1.117,0,0,0-1.141-1.3Zm18.155,0a1.577,1.577,0,0,0-1.514,1.3l-.057.408a1.117,1.117,0,0,0,1.14,1.305h2.406a1.575,1.575,0,0,0,1.513-1.305L46,21.115a1.116,1.116,0,0,0-1.14-1.3Zm6.052,0a1.576,1.576,0,0,0-1.514,1.3l-.057.408a1.117,1.117,0,0,0,1.14,1.305h2.406a1.575,1.575,0,0,0,1.513-1.305l.059-.408a1.116,1.116,0,0,0-1.14-1.3Zm6.052,0a1.576,1.576,0,0,0-1.514,1.3l-.058.408a1.118,1.118,0,0,0,1.141,1.305h2.406a1.575,1.575,0,0,0,1.513-1.305l.058-.408a1.116,1.116,0,0,0-1.14-1.3ZM30.88,16.083a1.575,1.575,0,0,0-1.513,1.3l-.059.408a1.117,1.117,0,0,0,1.141,1.3h2.406a1.575,1.575,0,0,0,1.513-1.3l.059-.408a1.117,1.117,0,0,0-1.14-1.3Zm12.1,0a1.576,1.576,0,0,0-1.514,1.3l-.057.408a1.116,1.116,0,0,0,1.14,1.3h2.405a1.575,1.575,0,0,0,1.514-1.3l.058-.408a1.117,1.117,0,0,0-1.139-1.3Zm12.1,0a1.575,1.575,0,0,0-1.513,1.3l-.059.408a1.117,1.117,0,0,0,1.14,1.3h2.406a1.576,1.576,0,0,0,1.514-1.3l.058-.408a1.117,1.117,0,0,0-1.14-1.3ZM13.259,12.354a1.576,1.576,0,0,0-1.514,1.3l-.058.408a1.117,1.117,0,0,0,1.14,1.3h2.407a1.575,1.575,0,0,0,1.513-1.3l.059-.408a1.117,1.117,0,0,0-1.141-1.3Zm12.1,0a1.576,1.576,0,0,0-1.514,1.3l-.058.408a1.116,1.116,0,0,0,1.14,1.3h2.407a1.574,1.574,0,0,0,1.513-1.3l.058-.408a1.116,1.116,0,0,0-1.14-1.3Zm12.1,0a1.575,1.575,0,0,0-1.513,1.3l-.058.408a1.116,1.116,0,0,0,1.14,1.3H39.44a1.576,1.576,0,0,0,1.514-1.3l.058-.408a1.117,1.117,0,0,0-1.141-1.3Zm12.1,0a1.575,1.575,0,0,0-1.513,1.3L48,14.067a1.116,1.116,0,0,0,1.14,1.3h2.406a1.576,1.576,0,0,0,1.514-1.3l.057-.408a1.116,1.116,0,0,0-1.14-1.3Zm6.052,0a1.576,1.576,0,0,0-1.514,1.3l-.057.408a1.116,1.116,0,0,0,1.14,1.3h2.406a1.574,1.574,0,0,0,1.513-1.3l.059-.408a1.117,1.117,0,0,0-1.141-1.3Z" transform="translate(-11.674 -12.354)" fill="none"/>
    </clipPath>
    <linearGradient id="linear-gradient" y1="0.482" x2="1" y2="0.488" gradientUnits="objectBoundingBox">
      <stop offset="0" stop-color="#5b9ef4"/>
      <stop offset="1" stop-color="#5bccf4"/>
    </linearGradient>
  </defs>
  <g id="Group_1" data-name="Group 1" transform="translate(53.245 0.002)">
    <path id="Path_1" data-name="Path 1" d="M78.987,23.1H76.223L75.209,30.3h-2.13l2.51-17.653h6.847c3.448,0,5.832,1.521,5.376,5.286-.508,3.516-3.095,4.988-6.188,5.137l4.767,7.23H83.779Zm2.256-1.945c2.435,0,4.108-.8,4.438-3.217.355-2.444-1.192-3.241-3.525-3.191H77.415L76.5,21.152Z" transform="translate(-73.079 -12.399)" fill="#6f797f"/>
    <path id="Path_2" data-name="Path 2" d="M98.17,20.086c3.017.6,6.364,1.272,5.5,5.61-.635,3.242-4.007,4.812-7.2,4.812-2.713,0-5.376-1.247-6.137-3.765l2.079-.872c.532,1.7,2.434,2.543,4.388,2.543,2.13,0,4.362-.9,4.767-2.817.584-2.543-1.724-3.042-4.184-3.541-2.84-.573-5.756-1.5-5.275-5.037.635-3.092,3.9-4.663,7-4.663,2.662,0,5.3,1.147,6.034,3.616l-2.053.848c-.482-1.646-2.384-2.369-4.285-2.369-2.08,0-4.21.773-4.59,2.643-.457,2.119,1.648,2.543,3.956,2.992" transform="translate(-75.372 -12.356)" fill="#6f797f"/>
    <path id="Path_3" data-name="Path 3" d="M115.794,17.867c.506-3.64,4.209-5.511,7.632-5.511,2.587,0,5.047,1.148,5.833,3.541l-2.029.947a4.3,4.3,0,0,0-4.184-2.393c-2.307,0-4.793,1.122-5.123,3.416L116.934,25c-.329,2.294,1.826,3.416,4.134,3.416a5.856,5.856,0,0,0,4.868-2.369l1.775.873a8.239,8.239,0,0,1-6.922,3.591c-3.373,0-6.492-1.845-5.984-5.511Z" transform="translate(-78.617 -12.356)" fill="#6f797f"/>
    <path id="Path_4" data-name="Path 4" d="M133.111,17.892c.507-3.689,4.362-5.535,7.963-5.535,3.576,0,6.9,1.845,6.391,5.535l-.964,7.057c-.507,3.69-4.387,5.56-7.963,5.56-3.6,0-6.9-1.87-6.39-5.56Zm1.141,7.057c-.3,2.318,2.029,3.491,4.59,3.491,2.535,0,5.249-1.172,5.553-3.491l.963-7.057c.33-2.443-2.054-3.44-4.59-3.44-2.535.025-5.223,1.047-5.553,3.44Z" transform="translate(-80.922 -12.356)" fill="#6f797f"/>
    <path id="Path_5" data-name="Path 5" d="M165.54,12.649h2.13L165.16,30.3H162.6L155.65,16.14l-2,14.163h-2.13l2.51-17.654h2.283l7.151,14.786Z" transform="translate(-83.503 -12.399)" fill="#6f797f"/>
    <path id="Path_6" data-name="Path 6" d="M185.6,12.649h2.13L185.223,30.3h-2.561L175.713,16.14l-2,14.163h-2.13l2.51-17.654h2.283l7.151,14.786Z" transform="translate(-86.169 -12.399)" fill="#6f797f"/>
    <path id="Path_7" data-name="Path 7" d="M195.168,20.428h8.647l-.3,2.095h-8.647l-.811,5.686h9.382l-.279,2.094H191.643l2.511-17.654h11.512l-.3,2.094h-9.382Z" transform="translate(-88.835 -12.399)" fill="#6f797f"/>
    <path id="Path_8" data-name="Path 8" d="M209.382,17.867c.506-3.64,4.21-5.511,7.632-5.511,2.587,0,5.047,1.148,5.833,3.541l-2.029.947a4.3,4.3,0,0,0-4.184-2.393c-2.307,0-4.793,1.122-5.123,3.416L210.523,25c-.329,2.294,1.825,3.416,4.133,3.416a5.858,5.858,0,0,0,4.869-2.369l1.775.873a8.242,8.242,0,0,1-6.923,3.591c-3.372,0-6.491-1.845-5.984-5.511Z" transform="translate(-91.054 -12.356)" fill="#6f797f"/>
    <path id="Path_9" data-name="Path 9" d="M234.128,14.743,231.922,30.3h-2.13L232,14.743h-5.756l.3-2.095h13.642l-.3,2.095Z" transform="translate(-93.433 -12.399)" fill="#6f797f"/>
  </g>
  <g id="Group_3" data-name="Group 3">
    <g id="Group_2" data-name="Group 2" clip-path="url(#clip-path)">
      <rect id="Rectangle_2" data-name="Rectangle 2" width="47.684" height="17.931" transform="translate(-0.089 0)" fill="url(#linear-gradient)"/>
    </g>
  </g>
</svg>
