<svg id="RS_Logo_blue_and_white" data-name="RS Logo blue and white" xmlns="http://www.w3.org/2000/svg" xmlns:xlink="http://www.w3.org/1999/xlink" width="200" height="18.462" viewBox="0 0 200 18.462">
  <defs>
    <clipPath id="clip-path">
      <path id="Path_10" data-name="Path 10" d="M41.385,27.52a1.584,1.584,0,0,0-1.513,1.327l-.059.415a1.13,1.13,0,0,0,1.141,1.327H43.36a1.583,1.583,0,0,0,1.514-1.327l.058-.415a1.129,1.129,0,0,0-1.14-1.327Zm6.052,0a1.583,1.583,0,0,0-1.513,1.327l-.059.415a1.13,1.13,0,0,0,1.141,1.327h2.406a1.582,1.582,0,0,0,1.513-1.327l.059-.415a1.13,1.13,0,0,0-1.141-1.327Zm6.051,0a1.583,1.583,0,0,0-1.512,1.327l-.059.415a1.129,1.129,0,0,0,1.141,1.327h2.405a1.583,1.583,0,0,0,1.514-1.327l.059-.415a1.13,1.13,0,0,0-1.141-1.327ZM35.866,23.728a1.583,1.583,0,0,0-1.513,1.328l-.059.414a1.13,1.13,0,0,0,1.14,1.328h2.407a1.586,1.586,0,0,0,1.514-1.328l.058-.414a1.131,1.131,0,0,0-1.141-1.328Zm12.1,0a1.584,1.584,0,0,0-1.514,1.328l-.058.414A1.131,1.131,0,0,0,47.538,26.8h2.406a1.585,1.585,0,0,0,1.513-1.328l.059-.414a1.131,1.131,0,0,0-1.141-1.328Zm6.052,0a1.584,1.584,0,0,0-1.514,1.328l-.058.414A1.13,1.13,0,0,0,53.59,26.8H56a1.585,1.585,0,0,0,1.514-1.328l.058-.414a1.13,1.13,0,0,0-1.14-1.328ZM24.3,19.937a1.582,1.582,0,0,0-1.512,1.327l-.059.415a1.13,1.13,0,0,0,1.14,1.328h2.406a1.584,1.584,0,0,0,1.514-1.328l.059-.415A1.13,1.13,0,0,0,26.7,19.937Zm18.155,0a1.586,1.586,0,0,0-1.514,1.327l-.057.415a1.13,1.13,0,0,0,1.14,1.328h2.406a1.583,1.583,0,0,0,1.513-1.328L46,21.264a1.129,1.129,0,0,0-1.14-1.327Zm6.052,0a1.585,1.585,0,0,0-1.514,1.327l-.057.415a1.129,1.129,0,0,0,1.14,1.328h2.406a1.584,1.584,0,0,0,1.513-1.328l.059-.415a1.129,1.129,0,0,0-1.14-1.327Zm6.052,0a1.585,1.585,0,0,0-1.514,1.327l-.058.415a1.13,1.13,0,0,0,1.141,1.328h2.406a1.584,1.584,0,0,0,1.513-1.328l.058-.415a1.128,1.128,0,0,0-1.14-1.327ZM30.88,16.146a1.583,1.583,0,0,0-1.513,1.327l-.059.415a1.13,1.13,0,0,0,1.141,1.327h2.406a1.583,1.583,0,0,0,1.513-1.327l.059-.415a1.13,1.13,0,0,0-1.14-1.327Zm12.1,0a1.584,1.584,0,0,0-1.514,1.327l-.057.415a1.129,1.129,0,0,0,1.14,1.327h2.405a1.583,1.583,0,0,0,1.514-1.327l.058-.415a1.129,1.129,0,0,0-1.139-1.327Zm12.1,0a1.583,1.583,0,0,0-1.513,1.327l-.059.415a1.129,1.129,0,0,0,1.14,1.327h2.406a1.584,1.584,0,0,0,1.514-1.327l.058-.415a1.129,1.129,0,0,0-1.14-1.327ZM13.259,12.354a1.584,1.584,0,0,0-1.514,1.327l-.058.415a1.129,1.129,0,0,0,1.14,1.327h2.407A1.583,1.583,0,0,0,16.747,14.1l.059-.415a1.13,1.13,0,0,0-1.141-1.327Zm12.1,0a1.584,1.584,0,0,0-1.514,1.327l-.058.415a1.129,1.129,0,0,0,1.14,1.327h2.407A1.582,1.582,0,0,0,28.851,14.1l.058-.415a1.128,1.128,0,0,0-1.14-1.327Zm12.1,0a1.584,1.584,0,0,0-1.513,1.327l-.058.415a1.128,1.128,0,0,0,1.14,1.327H39.44A1.584,1.584,0,0,0,40.954,14.1l.058-.415a1.129,1.129,0,0,0-1.141-1.327Zm12.1,0a1.584,1.584,0,0,0-1.513,1.327L48,14.1a1.128,1.128,0,0,0,1.14,1.327h2.406A1.585,1.585,0,0,0,53.057,14.1l.057-.415a1.128,1.128,0,0,0-1.14-1.327Zm6.052,0a1.585,1.585,0,0,0-1.514,1.327l-.057.415a1.128,1.128,0,0,0,1.14,1.327h2.406A1.582,1.582,0,0,0,59.107,14.1l.059-.415a1.13,1.13,0,0,0-1.141-1.327Z" transform="translate(-11.674 -12.354)" fill="none"/>
    </clipPath>
    <linearGradient id="linear-gradient" y1="0.5" x2="1" y2="0.5" gradientUnits="objectBoundingBox">
      <stop offset="0" stop-color="#5b9ef4"/>
      <stop offset="1" stop-color="#5bccf4"/>
    </linearGradient>
  </defs>
  <g id="RS_Logo_Colour" data-name="RS Logo Colour">
    <g id="Group_1" data-name="Group 1" transform="translate(53.245 0.002)">
      <path id="Path_1" data-name="Path 1" d="M78.987,23.274H76.223L75.209,30.6h-2.13l2.51-17.953h6.847c3.448,0,5.832,1.547,5.376,5.375C87.3,21.6,84.717,23.1,81.624,23.249L86.392,30.6H83.779ZM81.244,21.3c2.435,0,4.108-.812,4.438-3.272.355-2.485-1.192-3.3-3.525-3.246H77.415L76.5,21.3Z" transform="translate(-73.079 -12.395)" fill="#fff"/>
      <path id="Path_2" data-name="Path 2" d="M98.17,20.217c3.017.609,6.364,1.294,5.5,5.706-.635,3.3-4.007,4.894-7.2,4.894-2.713,0-5.376-1.268-6.137-3.829l2.079-.887c.532,1.724,2.434,2.586,4.388,2.586,2.13,0,4.362-.912,4.767-2.865.584-2.587-1.724-3.094-4.184-3.6-2.84-.583-5.756-1.521-5.275-5.122.635-3.144,3.9-4.742,7-4.742,2.662,0,5.3,1.166,6.034,3.677l-2.053.862c-.482-1.674-2.384-2.409-4.285-2.409-2.08,0-4.21.786-4.59,2.688-.457,2.155,1.648,2.587,3.956,3.043" transform="translate(-75.372 -12.356)" fill="#fff"/>
      <path id="Path_3" data-name="Path 3" d="M115.794,17.96c.506-3.7,4.209-5.6,7.632-5.6,2.587,0,5.047,1.167,5.833,3.6l-2.029.963a4.287,4.287,0,0,0-4.184-2.434c-2.307,0-4.793,1.141-5.123,3.474l-.989,7.252c-.329,2.333,1.826,3.474,4.134,3.474a5.822,5.822,0,0,0,4.868-2.409l1.775.888a8.2,8.2,0,0,1-6.922,3.651c-3.373,0-6.492-1.876-5.984-5.6Z" transform="translate(-78.617 -12.356)" fill="#fff"/>
      <path id="Path_4" data-name="Path 4" d="M133.111,17.985c.507-3.752,4.362-5.628,7.963-5.628,3.576,0,6.9,1.876,6.391,5.628l-.964,7.177c-.507,3.753-4.387,5.654-7.963,5.654-3.6,0-6.9-1.9-6.39-5.654Zm1.141,7.177c-.3,2.358,2.029,3.55,4.59,3.55,2.535,0,5.249-1.192,5.553-3.55l.963-7.177c.33-2.484-2.054-3.5-4.59-3.5-2.535.025-5.223,1.065-5.553,3.5Z" transform="translate(-80.922 -12.356)" fill="#fff"/>
      <path id="Path_5" data-name="Path 5" d="M165.54,12.649h2.13L165.16,30.6H162.6L155.65,16.2l-2,14.4h-2.13l2.51-17.954h2.283l7.151,15.037Z" transform="translate(-83.503 -12.395)" fill="#fff"/>
      <path id="Path_6" data-name="Path 6" d="M185.6,12.649h2.13L185.223,30.6h-2.561l-6.948-14.4-2,14.4h-2.13l2.51-17.954h2.283l7.151,15.037Z" transform="translate(-86.169 -12.395)" fill="#fff"/>
      <path id="Path_7" data-name="Path 7" d="M195.168,20.56h8.647l-.3,2.13h-8.647l-.811,5.782h9.382l-.279,2.13H191.643l2.511-17.953h11.512l-.3,2.13h-9.382Z" transform="translate(-88.835 -12.395)" fill="#fff"/>
      <path id="Path_8" data-name="Path 8" d="M209.382,17.96c.506-3.7,4.21-5.6,7.632-5.6,2.587,0,5.047,1.167,5.833,3.6l-2.029.963a4.287,4.287,0,0,0-4.184-2.434c-2.307,0-4.793,1.141-5.123,3.474l-.988,7.252c-.33,2.333,1.825,3.474,4.133,3.474a5.824,5.824,0,0,0,4.869-2.409l1.775.888a8.2,8.2,0,0,1-6.923,3.651c-3.372,0-6.491-1.876-5.984-5.6Z" transform="translate(-91.054 -12.356)" fill="#fff"/>
      <path id="Path_9" data-name="Path 9" d="M234.128,14.779,231.922,30.6h-2.13L232,14.779h-5.756l.3-2.13h13.642l-.3,2.13Z" transform="translate(-93.433 -12.395)" fill="#fff"/>
    </g>
    <g id="Group_3" data-name="Group 3">
      <g id="Group_2" data-name="Group 2" clip-path="url(#clip-path)">
        <rect id="Rectangle_2" data-name="Rectangle 2" width="47.684" height="18.235" transform="translate(-0.089 0)" fill="url(#linear-gradient)"/>
      </g>
    </g>
  </g>
</svg>
